<?xml version="1.0" encoding="UTF-8" standalone="no"?>
<svg
   xmlns:dc="http://purl.org/dc/elements/1.1/"
   xmlns:cc="http://creativecommons.org/ns#"
   xmlns:rdf="http://www.w3.org/1999/02/22-rdf-syntax-ns#"
   xmlns:svg="http://www.w3.org/2000/svg"
   xmlns="http://www.w3.org/2000/svg"
   xmlns:sodipodi="http://sodipodi.sourceforge.net/DTD/sodipodi-0.dtd"
   xmlns:inkscape="http://www.inkscape.org/namespaces/inkscape"
   viewBox="0 0 27 34"
   version="1.1"
   id="svg37"
   sodipodi:docname="htmlacademy.svg"
   width="27"
   height="34"
   inkscape:version="0.92.4 (5da689c313, 2019-01-14)">
  <metadata
     id="metadata43">
    <rdf:RDF>
      <cc:Work
         rdf:about="">
        <dc:format>image/svg+xml</dc:format>
        <dc:type
           rdf:resource="http://purl.org/dc/dcmitype/StillImage" />
        <dc:title></dc:title>
      </cc:Work>
    </rdf:RDF>
  </metadata>
  <defs
     id="defs41" />
  <sodipodi:namedview
     pagecolor="#ffffff"
     bordercolor="#666666"
     borderopacity="1"
     objecttolerance="10"
     gridtolerance="10"
     guidetolerance="10"
     inkscape:pageopacity="0"
     inkscape:pageshadow="2"
     inkscape:window-width="1920"
     inkscape:window-height="1028"
     id="namedview39"
     showgrid="false"
     fit-margin-top="0"
     fit-margin-left="0"
     fit-margin-right="0"
     fit-margin-bottom="0"
     inkscape:zoom="3.9333333"
     inkscape:cx="34.445763"
     inkscape:cy="37.457627"
     inkscape:window-x="1912"
     inkscape:window-y="-8"
     inkscape:window-maximized="1"
     inkscape:current-layer="svg37" />
  <path
     d="M 13.637055,0 H 13.5 L 0,1.428 V 26.044 L 13.5,34 27,26.044 V 1.428 Z M 25.286802,25.024 13.5,31.96 1.713198,25.024 V 14.96 l 11.718274,6.936 V 23.12 L 5.4137056,18.36 v 1.224 L 13.5,24.412 v 1.292 l -8.0862944,-4.76 v 1.224 L 13.5,26.928 21.654823,22.1 v -5.168 l 3.631979,-2.176 z m -0.06853,-11.56 -3.220812,1.904 -1.507614,0.884 -7.058376,-4.148 v 1.224 l 6.030457,3.604 h -0.06853 L 19.25634,17 18.365478,17.476 13.36294,14.552 v 1.224 l 3.974619,2.312 -0.959391,0.612 -2.946701,-1.768 v 1.224 l 1.987309,1.156 -1.987309,1.156 L 1.7817209,13.6 13.431472,6.664 Z M 25.286802,12.24 13.431472,5.304 1.713198,12.24 V 2.992 L 13.5,1.768 25.286802,2.992 Z"
     id="path35"
     inkscape:connector-curvature="0"
     style="fill:#2e368f;stroke-width:0.68263447" />
</svg>
