<svg xmlns="http://www.w3.org/2000/svg" width="27" height="34"><path d="M13.637 0H13.5L0 1.428v24.616L13.5 34 27 26.044V1.428zm11.65 25.024L13.5 31.96 1.713 25.024V14.96l11.718 6.936v1.224l-8.017-4.76v1.224l8.086 4.828v1.292l-8.086-4.76v1.224l8.086 4.76 8.155-4.828v-5.168l3.632-2.176zm-.069-11.56l-3.22 1.904-1.508.884-7.059-4.148v1.224l6.03 3.604h-.068l-.137.068-.89.476-5.003-2.924v1.224l3.975 2.312-.96.612-2.947-1.768v1.224l1.988 1.156-1.988 1.156L1.781 13.6l11.65-6.936zm.069-1.224L13.43 5.304 1.713 12.24V2.992L13.5 1.768l11.787 1.224z"/></svg>
